<svg height="401.4" viewBox="0 0 480.758 401.4" width="480.758" xmlns="http://www.w3.org/2000/svg"><g fill-rule="evenodd" transform="translate(-109.613 -79.301)"><path d="m547.73 79.305c-12.992-.133-25.691 6.973-34 18.746l-76.352 108.549-3.2 4.578h110.34l34.59-75.234c8.762-19.047 4.3-41.27-13.832-51.75a35.434 35.434 0 0 0 -17.55-4.894z"/><path d="m334.07 290.76h46.488v41.785h41.656v46.676h-41.656v41.82h-46.488v-41.82h-41.633v-46.676h41.633zm-202.34-157.93c34.066 11.258 69.016 32.672 83.137 57.32 9.891 17.262 11.312 29.625 7.75 40.949h-24.949c-2.164-19.434-16.1-34.223-28.473-47.59l-12 11.188c11.664 12.621 21.6 24.27 23.891 36.4h-43.281c-12.578-24.922-13.125-64.3-6.074-98.27zm165.18-.191c7.113 34.027 6.527 73.477-6.09 98.453h-44.6a96.965 96.965 0 0 1 7.207-15.6 157.151 157.151 0 0 1 19.785-27.121l-12.059-11.219a171.624 171.624 0 0 0 -21.984 30.1c0 .031-.023.063-.023.1a85.977 85.977 0 0 0 -10.023-25.406c-1.262-2.266-2.687-4.473-4.168-6.613 17.2-18.594 44.828-33.777 71.957-42.691zm-177.92-21.939-2.1 8.016c-10.633 39.926-10.789 88.691 7.473 122.04a237.674 237.674 0 0 0 102.237 192.674v47.27h261.43v-47.039a237.819 237.819 0 0 0 102.34-195.49v-7.071h-281.449c13.516-32.7 12.484-76.172 2.844-112.38l-2.165-8.02-7.891 2.18c-31.938 8.594-65.234 26.113-87.34 49.473-22.047-23.465-55.465-40.875-87.406-49.473z"/></g></svg>