<svg height="504.009" viewBox="0 0 504.003 504.009" width="504.003" xmlns="http://www.w3.org/2000/svg"><path d="m277.961 504.009c-4.8 0-3.851-7.184-2.484-11.043 10.105-28.527 9.977-85.043 9.973-85.156-1.2-31.031 4.754-44.644 26.187-74.828 32.515-45.789 59.224-48.707 73.953-78.531 16.539-33.484 53.239-3.464 10.367 48.688-44.339 53.931 51.406 5 59.82-46.859 16.623-102.435 53.83-107.18 47.51-74.052-6.2 32.5 1.793 69.039-4.32 91.164-5.645 20.43-11.824 31.461-23.864 52.035-28.667 48.984-71.55 94.187-109.46 107.82-3.774 1.355 1.856 24.23-5.7 66.492-.57 3.2-4.734 4.27-14.078 4.27zm-119.822 0c-9.343 0-13.5-1.066-14.078-4.27-7.558-42.262-1.93-65.137-5.7-66.492-37.909-13.629-80.8-58.832-109.46-107.82-12.039-20.574-18.219-31.6-23.863-52.031-6.114-22.125 1.883-58.668-4.321-91.164-6.322-33.132 30.883-28.382 47.506 74.048 8.414 51.863 104.156 100.788 59.82 46.859-42.872-52.152-6.169-82.176 10.371-48.688 14.73 29.824 41.433 32.742 73.949 78.531 21.433 30.183 27.382 43.8 26.184 74.828 0 .113-.128 56.629 9.976 85.155 1.368 3.86 2.325 11.043-2.484 11.043zm-62.079-339.324h82.993l63.038 82.115 62.25-124.29 24.659 42.17h78.922-.007c-44.13 95.146-155.93 160.131-155.93 160.131s-111.785-64.981-155.925-160.126zm94.047-22.4h-102.9a168.446 168.446 0 0 1 -8.807-52.685 89.548 89.548 0 0 1 173.6-30.938 89.549 89.549 0 0 1 173.6 30.938 168.421 168.421 0 0 1 -8.809 52.672h-74.93l-39.043-66.738-64.733 129.25z" transform="translate(.001)"/></svg>