<svg height="540.025" viewBox="0 0 471.974 540.025" width="471.974" xmlns="http://www.w3.org/2000/svg"><path d="m166.888 312.646-83.844 31.7q-1.57.684-3.223 1.219l-1.227.464-.031-.086c-1.012.285-2.039.523-3.094.718a36.749 36.749 0 0 1 -5.73.59c-12.767.316-25.4-5.828-35.516-16.02a75.891 75.891 0 0 1 -20.258-39.25 71.731 71.731 0 0 1 -1.188-11.258c-.3-11.949 2.622-22.691 7.985-30.93a36.092 36.092 0 0 1 20.223-15.426l1.352-.481a57.776 57.776 0 0 1 -20.887-14.12 78.016 78.016 0 0 1 -20.223-39.684 71.551 71.551 0 0 1 -1.227-12.935c0-11.406 2.965-21.582 8.2-29.379a35 35 0 0 1 20.1-14.737l367.91-121.3-.019-.054c.628-.207 1.262-.4 1.9-.567l.074-.023q1.542-.4 3.121-.657a34.193 34.193 0 0 1 5.314-.43c11.9 0 23.637 6.016 33 15.746a72.086 72.086 0 0 1 18.586 36.949c2.012 11.336 1.036 21.91-2.262 30.633-3.523 9.312-9.683 16.538-17.734 20.457-.364.175-1.711.691-3.211 1.254a52.827 52.827 0 0 1 17.332 11.922 70.11 70.11 0 0 1 18.621 36.559c2.008 11.273 1.035 21.863-2.262 30.667-3.5 9.352-9.641 16.7-17.66 20.8-.477.243-1.988.859-3.586 1.5l.028.07-4.387 1.661h-.012l-41.907 15.848-.008-.006-2.062 222.781q-117.007 46.593-234.011 93.183c.535-75.724 1.526-151.618 1.823-227.378zm-20.641-105.489a45.73 45.73 0 0 1 18.82 17.027c7.653 11.934 11.477 28.117 11.3 46.517l-1.809 255.42 215.18-85.68 2.332-252.22c.355-14.891-3.218-28.09-9.464-38.074-5.907-9.442-14.207-15.945-23.77-18.117zm-95.922 35.21a26.755 26.755 0 0 0 -4.254.441c-7.261 1.344-13.27 5.715-17.429 12.1-4.356 6.691-6.719 15.57-6.473 25.586a62.51 62.51 0 0 0 1.039 9.786 66.32 66.32 0 0 0 17.68 34.32c8.359 8.418 18.559 13.5 28.625 13.254a26.629 26.629 0 0 0 4.254-.442 24.757 24.757 0 0 0 2.871-.707l2.828-1.07a27.534 27.534 0 0 0 11.734-10.335c4.355-6.691 6.719-15.57 6.473-25.586a62.5 62.5 0 0 0 -1.039-9.785 66.311 66.311 0 0 0 -17.68-34.312c-8.163-8.22-18.081-13.262-27.914-13.262-.24.003-.478.006-.715.012zm-17.686-110.683a25.512 25.512 0 0 0 -16.633 11.316c-4.2 6.253-6.583 14.612-6.583 24.144a61.825 61.825 0 0 0 1.043 11.238 68.469 68.469 0 0 0 17.716 34.818c8.375 8.645 18.6 13.992 28.7 13.992a26.51 26.51 0 0 0 4.832-.419c.621-.113 1.235-.254 1.84-.41l3.719-1.317a26.489 26.489 0 0 0 11.074-9.586c4.2-6.253 6.583-14.612 6.583-24.144a61.745 61.745 0 0 0 -1.043-11.238 68.468 68.468 0 0 0 -17.715-34.82c-8.375-8.645-18.606-13.992-28.7-13.992a26.508 26.508 0 0 0 -4.833.418zm161.766 362.716a2.937 2.937 0 0 1 1.648-3.812l173.247-69.017a2.937 2.937 0 1 1 2.164 5.461l-173.25 69.016a2.935 2.935 0 0 1 -3.812-1.649zm.324-14.612a2.937 2.937 0 0 1 1.649-3.812l173.25-69.016a2.937 2.937 0 1 1 2.164 5.461l-173.25 69.016a2.936 2.936 0 0 1 -3.812-1.648zm.324-14.617a2.937 2.937 0 0 1 1.649-3.812l173.25-69.012a2.937 2.937 0 1 1 2.164 5.46l-173.25 69.012a2.936 2.936 0 0 1 -3.812-1.648zm.325-14.613a2.937 2.937 0 0 1 1.648-3.812l173.25-69.012a2.937 2.937 0 0 1 2.164 5.461l-173.25 69.012a2.935 2.935 0 0 1 -3.812-1.649zm4.117-17.031a3.862 3.862 0 0 1 -2.211-.731 3.966 3.966 0 0 1 -1.355-1.773 4.658 4.658 0 0 1 -.317-1.8l.887-40.25a5.884 5.884 0 0 1 .96-3.031 5.491 5.491 0 0 1 2.5-2.094l71.328-28.422a4.244 4.244 0 0 1 1.664-.309 3.862 3.862 0 0 1 2.211.731 3.972 3.972 0 0 1 1.355 1.773 4.657 4.657 0 0 1 .317 1.8l-.887 40.251a5.889 5.889 0 0 1 -.96 3.031 5.5 5.5 0 0 1 -2.5 2.093l-71.328 28.422a4.258 4.258 0 0 1 -1.578.31zm2.875-44.32-.828 37.531 68.531-27.305.827-37.533zm67.7 10.346v-.082h-.015l.012.007-.012-.008c.01.03.013.145.013.082zm-67.7-10.4v.015h.015l-.012-.008.012.008a.893.893 0 0 1 -.011-.093s0 0 0 .018zm93.59 5.936a3.855 3.855 0 0 1 -2.211-.73 3.97 3.97 0 0 1 -1.355-1.774 4.669 4.669 0 0 1 -.316-1.8l.887-40.25a5.879 5.879 0 0 1 .961-3.031 5.483 5.483 0 0 1 2.5-2.093l71.329-28.422a4.222 4.222 0 0 1 1.664-.309 3.859 3.859 0 0 1 2.21.731 3.961 3.961 0 0 1 1.355 1.773 4.653 4.653 0 0 1 .317 1.8l-.887 40.25a5.879 5.879 0 0 1 -.961 3.031 5.469 5.469 0 0 1 -2.5 2.094l-71.328 28.422a4.252 4.252 0 0 1 -1.577.309zm2.875-44.32-.828 37.531 68.531-27.3.828-37.532zm67.7 10.347v-.082h-.015l.012.008-.012-.007c.01.033.013.146.013.084zm-67.7-10.4v.015h.016l-.013-.008.012.007a.858.858 0 0 1 -.011-.093s0 .005 0 .019zm-101.672 16.822a2.937 2.937 0 0 1 1.649-3.812l170.53-67.962a2.937 2.937 0 1 1 2.164 5.461l-170.53 67.961a2.936 2.936 0 0 1 -3.812-1.648zm.324-14.613a2.938 2.938 0 0 1 1.649-3.812l170.53-67.961a2.937 2.937 0 1 1 2.164 5.46l-170.53 67.961a2.936 2.936 0 0 1 -3.813-1.649zm.324-14.614a2.937 2.937 0 0 1 1.648-3.812l170.53-67.961a2.937 2.937 0 0 1 2.165 5.462l-170.531 67.96a2.935 2.935 0 0 1 -3.812-1.649zm.324-14.612a2.937 2.937 0 0 1 1.649-3.812l170.529-67.962a2.937 2.937 0 0 1 2.164 5.461l-170.53 67.961a2.936 2.936 0 0 1 -3.812-1.648zm-149.359-17.063a29.62 29.62 0 0 1 -7.918-15.32 28.334 28.334 0 0 1 -.465-4.414 21.973 21.973 0 0 1 3.281-12.547 15.514 15.514 0 0 1 10.266-7.015 15.809 15.809 0 0 1 2.48-.254c5.336-.132 10.547 2.36 14.652 6.5a29.62 29.62 0 0 1 7.918 15.32 28.269 28.269 0 0 1 .464 4.415 21.953 21.953 0 0 1 -3.281 12.543 15.517 15.517 0 0 1 -10.266 7.015 16.368 16.368 0 0 1 -2.48.254c-.135 0-.271.005-.4.005-5.199 0-10.25-2.47-14.251-6.502zm7.867-30.148a6.375 6.375 0 0 0 -1.007.105 6.239 6.239 0 0 0 -4.074 2.887 12.627 12.627 0 0 0 -1.769 7.2 18.571 18.571 0 0 0 .316 2.938 20.053 20.053 0 0 0 5.335 10.382c2.348 2.367 5.121 3.8 7.758 3.73a6.014 6.014 0 0 0 5.081-2.992 12.624 12.624 0 0 0 1.77-7.2 18.405 18.405 0 0 0 -.317-2.938 20.053 20.053 0 0 0 -5.336-10.381c-2.295-2.314-5-3.732-7.581-3.732-.059-.001-.119-.001-.177.001zm145.757 25.543a3.855 3.855 0 0 1 -2.211-.73 3.975 3.975 0 0 1 -1.355-1.774 4.652 4.652 0 0 1 -.317-1.8l.887-40.25a5.887 5.887 0 0 1 .96-3.031 5.489 5.489 0 0 1 2.5-2.093l65.273-26.008a4.238 4.238 0 0 1 1.664-.309 3.862 3.862 0 0 1 2.21.731 3.961 3.961 0 0 1 1.355 1.773 4.653 4.653 0 0 1 .317 1.8l-.887 40.25a5.879 5.879 0 0 1 -.961 3.031 5.482 5.482 0 0 1 -2.5 2.094l-65.273 26.007a4.236 4.236 0 0 1 -1.577.31zm2.875-44.315-.828 37.531 62.477-24.895.828-37.531zm61.645 12.757v-.082h-.015l.012.008-.012-.007c.015.03.019.143.019.081zm-61.645-12.811v.015h.015l-.012-.008.012.007a.866.866 0 0 1 -.011-.093s0 .005 0 .019zm82.657 7.464a2.938 2.938 0 0 1 1.648-3.813l81.234-32.383a2.937 2.937 0 1 1 2.164 5.461l-81.234 32.383a2.936 2.936 0 0 1 -3.812-1.648zm.328-14.615a2.937 2.937 0 0 1 1.649-3.812l81.234-32.383a2.937 2.937 0 1 1 2.164 5.46l-81.234 32.383a2.936 2.936 0 0 1 -3.812-1.648zm-93.376-13.685a2.939 2.939 0 0 1 1.715-3.789l171.06-64.367a2.941 2.941 0 1 1 2.075 5.5l-171.06 64.371a2.939 2.939 0 0 1 -3.79-1.715zm93.7-.928a2.938 2.938 0 0 1 1.649-3.812l78.848-31.434a2.937 2.937 0 0 1 2.164 5.461l-78.845 31.434a2.935 2.935 0 0 1 -3.812-1.649zm-101.39-13.139a2.936 2.936 0 0 1 1.761-3.766l172.39-62.562a2.94 2.94 0 0 1 2 5.527l-172.386 62.562a2.932 2.932 0 0 1 -3.766-1.761zm101.715-1.474a2.937 2.937 0 0 1 1.648-3.812l77.219-30.785a2.937 2.937 0 1 1 2.165 5.46l-77.219 30.785a2.935 2.935 0 0 1 -3.812-1.649zm-110.595-10.057a2.935 2.935 0 0 1 1.809-3.742l171.75-62.186a2.939 2.939 0 1 1 1.933 5.55l-171.75 62.184a2.932 2.932 0 0 1 -3.742-1.808zm-142.324-15.709a30.38 30.38 0 0 1 -7.879-15.449 28.294 28.294 0 0 1 -.488-5.07 21.39 21.39 0 0 1 3.394-11.965 15.167 15.167 0 0 1 9.938-6.664 15.507 15.507 0 0 1 2.832-.27c5.308 0 10.488 2.609 14.578 6.827a30.392 30.392 0 0 1 7.879 15.445 28.22 28.22 0 0 1 .488 5.071 21.385 21.385 0 0 1 -3.394 11.965 15.154 15.154 0 0 1 -9.938 6.664 15.5 15.5 0 0 1 -2.832.27c-5.309.004-10.488-2.606-14.578-6.824zm6.66-29.89a5.912 5.912 0 0 0 -3.82 2.644 12.071 12.071 0 0 0 -1.773 6.735 18.482 18.482 0 0 0 .3 3.375 20.766 20.766 0 0 0 5.375 10.581c2.368 2.442 5.164 3.954 7.833 3.954a6.585 6.585 0 0 0 1.137-.086 5.9 5.9 0 0 0 3.82-2.644 12.073 12.073 0 0 0 1.774-6.735 18.483 18.483 0 0 0 -.305-3.375 20.766 20.766 0 0 0 -5.372-10.578c-2.367-2.441-5.164-3.953-7.832-3.953a6.585 6.585 0 0 0 -1.137.082z"/></svg>