<svg height="427.564" viewBox="0 0 504.008 427.564" width="504.008" xmlns="http://www.w3.org/2000/svg"><path d="m227.527 263.844 59.016 75.035 149.484-65.479-2.875 66.73-205.91 87.434zm-137.385 55.536-2.453-59.832 42.5 36.641 86.398-42.089-.305 170.08zm131.951-80.164 224.53-84.457-160.1-94.442 58.285-59.292 159.2 83.575-57.385 70.16 44.871 82.429-201.589 88.242zm-222.093-69.772 76.663-44.725-42.629-66.925 205.43-57.794 47.051 60.312-209.852 64.407 145.43 114.49-90.223 43.965zm280.7-95.634 4.379-1.345 6.821 4.024v124.5l-11.2 4.21z"/></svg>