<svg height="420.894" viewBox="0 0 456.576 420.894" width="456.576" xmlns="http://www.w3.org/2000/svg"><path d="m550.64 69.6q-.176.082-.352.176l-40.773 13.646a4.906 4.906 0 0 0 -2.8 2.273l-31.676 58.8h11.2l28.176-52.324 39.023-13.125a4.9 4.9 0 0 0 -2.273-9.449 3.959 3.959 0 0 0 -.527 0zm-145.25 84.7a21.933 21.933 0 0 0 -22.227 21.875v9.449a4.907 4.907 0 0 1 -5.6 4.9h-.176c-.117 0-.234 0-.348 0h-.176q-.176.006-.352 0a21.933 21.933 0 0 0 -22.223 21.876v10.148h224v-10.148a21.77 21.77 0 0 0 -22.051-21.875 9.29 9.29 0 0 1 -5.152-1.164 4.892 4.892 0 0 1 -1.672-3.738v-9.449a21.77 21.77 0 0 0 -22.048-21.874zm-38.148 79.45 7.523 63.172h180.6l6.477-63.172zm40.6 27.824c.172-.008.348-.008.523 0 .176-.008.352-.008.523 0h119.35a4.9 4.9 0 1 1 0 9.8h-119.347a4.928 4.928 0 0 1 -1.047-9.8zm-32.023 45.148 6.824 57.055c4.152.422 8.293 1.078 12.426 1.75 1.738.281 3.523.363 5.25.7 2.348.461 4.684 1.152 7 1.75 2.023.5 3.961.961 5.949 1.574.891.285 1.742.566 2.625.875 1.105.375 2.23.809 3.324 1.227.582.23 1.172.461 1.75.7 1.668.672 3.273 1.5 4.9 2.273 1.582.758 3.188 1.41 4.727 2.273a72.416 72.416 0 0 1 13.477 9.977 75.035 75.035 0 0 1 11.551 13.477c1.156 1.723 2.258 3.547 3.324 5.426.934 1.645 1.938 3.3 2.8 5.074.117.242.234.461.352.7.137.285.215.59.352.875.84 1.8 1.688 3.668 2.449 5.6.719 1.82 1.453 3.66 2.1 5.6h75.6l11.9-116.9h-178.668zm29.75 36.75a3.9 3.9 0 0 1 .523 0q.176-.006.352 0h119.35a4.9 4.9 0 1 1 0 9.8h-119.352a4.92 4.92 0 0 1 -.875-9.8zm-152.07 5.6c-7.09 2.645-9.836 8.688-11.2 12.773 32.469 3.492 68.207 29.922 99.746 55.648 16.809 13.707 32.363 27.023 44.8 36.4a115.235 115.235 0 0 0 15.926 10.5c3.57 1.8 5.277 1.926 6.3 1.926 3.992-6.27 7.031-11.855 8.227-15.574 1.367-4.266 1.078-6.605.7-7.523s-.809-1.141-2.1-1.4a11.824 11.824 0 0 0 -5.6.7 54.183 54.183 0 0 1 -8.051 3.148 30.706 30.706 0 0 1 -7.7 1.574 12.491 12.491 0 0 1 -8.75-2.449 4.939 4.939 0 0 1 -1.574-2.449c-2.527-8.645-2.98-15.621-4.023-19.773a10.189 10.189 0 0 0 -1.75-4.023 4.545 4.545 0 0 0 -2.977-1.574c-3.8-.883-5.762.113-9.625 1.4a19.563 19.563 0 0 1 -16.273-1.4c-6.973-4.047-8.746-11.391-9.8-17.324s-1.918-11-4.023-13.648c-.605-.766-.895-1.051-2.449-1.051a29.208 29.208 0 0 0 -6.3 1.227c-2.43.645-4.9 1.574-7.875 1.574a8.273 8.273 0 0 1 -5.074-1.75 8.132 8.132 0 0 1 -2.977-5.426c-.523-5.254.68-12.488.176-18.9a19.444 19.444 0 0 0 -1.75-7.352 3.189 3.189 0 0 0 -2.449-1.75c-.289.23-.48.34-.875.7-1.4 1.27-3.18 3.168-5.074 5.074a53.025 53.025 0 0 1 -5.949 5.426 10.54 10.54 0 0 1 -3.5 1.926 7.2 7.2 0 0 1 -6.3-1.4c-2.746-2.508-5.121-6.074-7.7-8.4a8.676 8.676 0 0 0 -2.8-1.75c-3.066 3.289-6.527 5.461-10.324 4.9-3.914-.578-6.168-3.2-7.7-5.25-1.473-1.969-2.547-3.75-3.324-4.727zm67.375 19.074c-.082 3.738 0 7.672 0 9.449 1.008-.2 1.785-.422 3.5-.875a31.682 31.682 0 0 1 8.926-1.574 13.323 13.323 0 0 1 10.148 4.727c4.582 5.77 4.992 12.637 5.949 18.023s1.84 8.8 5.074 10.676h.172c3.957 2.3 4.863 1.586 8.051.527s8.25-3.293 14.875-1.75a15.544 15.544 0 0 1 8.4 4.9 19.055 19.055 0 0 1 3.676 7.875c1.242 4.949 1.832 10.785 3.5 17.324a2.031 2.031 0 0 0 .875 0 22.787 22.787 0 0 0 5.25-1.051 45.421 45.421 0 0 0 7.176-2.977 4.807 4.807 0 0 1 .7-.172 20.046 20.046 0 0 1 10.676-1.051 12.448 12.448 0 0 1 9.1 7.176c1.648 4 1.438 8.773-.352 14.352s-5.2 12.176-10.676 20.3a4.914 4.914 0 0 1 -2.449 1.926c-5.023 1.637-9.844-.168-15.051-2.8a121.12 121.12 0 0 1 -17.5-11.375c-12.895-9.723-28.312-23.16-44.977-36.75-33.328-27.184-71.863-54.375-100.1-54.6-29.949-.242-52.438 10.281-71.055 31.148-17.559 19.688-31.2 49.492-43.051 86.973 11.988.23 191.4 3.563 267.05.875 21.176-.754 47.918-6.41 58.973-18.375a44.426 44.426 0 0 0 11.023-40.426l.008.008a5.119 5.119 0 0 1 -.352-.875 7.506 7.506 0 0 1 -.352-1.75s0-.172 0-.172c-.016-.055.016-.117 0-.172-.875-2.719-1.8-5.254-2.8-7.7-.207-.5-.488-.914-.7-1.4-.832-1.922-1.715-3.848-2.625-5.6-.48-.926-.9-1.746-1.4-2.625-.715-1.27-1.52-2.492-2.273-3.676a65.677 65.677 0 0 0 -8.051-10.148 64.3 64.3 0 0 0 -14.523-11.023 75.646 75.646 0 0 0 -10.852-5.074 99.97 99.97 0 0 0 -11.727-3.5c-4.023-.953-8.223-1.672-12.426-2.273s-8.461-1.043-12.773-1.4v-.012a5.1 5.1 0 0 1 -.875-.172c-.059 0-.117 0-.176 0-19.176-1.5-38.9-1.445-56-4.9zm-117.07 25.727c.617 0 1.789.488 3.148 2.1a11.737 11.737 0 0 1 0 14.352c-1.363 1.609-2.535 2.1-3.148 2.1s-1.789-.488-3.148-2.1a11.737 11.737 0 0 1 0-14.352c1.365-1.606 2.537-2.098 3.15-2.098zm35.696 27.127c1.887 0 4.074 1.191 6.125 4.551s3.324 8.422 3.324 14.176-1.273 10.992-3.324 14.352-4.238 4.551-6.125 4.551-4.25-1.191-6.3-4.551-3.5-8.594-3.5-14.352a27.953 27.953 0 0 1 3.5-14.176c2.055-3.356 4.414-4.551 6.3-4.551zm54.773 15.926c.617 0 1.789.313 3.148 1.926a11.282 11.282 0 0 1 2.449 7.176 11.835 11.835 0 0 1 -2.449 7.352c-1.363 1.609-2.535 1.926-3.148 1.926s-1.789-.312-3.148-1.926a11.811 11.811 0 0 1 -2.449-7.352 11.3 11.3 0 0 1 2.449-7.176c1.368-1.61 2.54-1.926 3.153-1.926zm-130.725 13.824c.617 0 1.789.313 3.148 1.926a11.282 11.282 0 0 1 2.449 7.176 11.835 11.835 0 0 1 -2.445 7.348c-1.363 1.609-2.535 1.926-3.148 1.926s-1.789-.312-3.148-1.926a11.811 11.811 0 0 1 -2.449-7.352 11.3 11.3 0 0 1 2.449-7.176c1.359-1.606 2.531-1.922 3.144-1.922z" transform="translate(-121.711 -69.569)"/></svg>