<svg height="420.043" viewBox="0 0 381.942 420.043" width="381.942" xmlns="http://www.w3.org/2000/svg"><path d="m10.086 420.04a10.218 10.218 0 0 1 -10.086-9.84v-384.6c0-13.777 12.1-25.59 26.9-25.59h247.448c-7.4 5.907-12.776 15.095-12.776 24.939v286.8a69.238 69.238 0 0 0 -16.81 44.627c0 15.095 4.706 29.531 13.448 40.69v20.347a8.744 8.744 0 0 1 -6.724 2.625zm28.238-59.067a3.138 3.138 0 0 0 3.362 3.282h179.544c2.015 0 2.687-1.314 2.687-3.282a3.138 3.138 0 0 0 -3.362-3.281h-178.868a3.138 3.138 0 0 0 -3.362 3.281zm0-43.314a3.138 3.138 0 0 0 3.362 3.282h179.544c2.015 0 3.362-1.314 2.687-3.282a3.138 3.138 0 0 0 -3.362-3.281h-178.868a3.138 3.138 0 0 0 -3.362 3.281zm0-43.316a3.139 3.139 0 0 0 3.362 3.282h178.871a3.282 3.282 0 1 0 0-6.563h-178.869a3.137 3.137 0 0 0 -3.362 3.281zm0-43.316a3.137 3.137 0 0 0 3.362 3.281h179.544c2.015 0 3.362-1.314 2.687-3.281a3.138 3.138 0 0 0 -3.362-3.282h-178.868a3.138 3.138 0 0 0 -3.362 3.282zm0-43.316a3.137 3.137 0 0 0 3.362 3.281h179.544c2.015 0 2.687-1.314 2.687-3.281a3.138 3.138 0 0 0 -3.362-3.282h-178.868a3.138 3.138 0 0 0 -3.362 3.283zm0-43.316a3.138 3.138 0 0 0 3.362 3.282h179.544c2.015 0 2.687-1.314 2.687-3.282a3.138 3.138 0 0 0 -3.362-3.281h-178.868a3.138 3.138 0 0 0 -3.362 3.286zm0-43.316a3.138 3.138 0 0 0 3.362 3.282h179.544c2.015 0 2.687-1.314 2.687-3.282a3.137 3.137 0 0 0 -3.362-3.281h-178.868a3.137 3.137 0 0 0 -3.362 3.281zm0-43.972a3.137 3.137 0 0 0 3.362 3.281h179.544c2.015 0 2.687-1.314 2.687-3.281a3.138 3.138 0 0 0 -3.362-3.282h-178.868a3.138 3.138 0 0 0 -3.362 3.283zm213.163 299.269c0-34.783 29.589-63 65.227-63s65.224 28.22 65.227 63-28.918 63-65.227 63-65.227-28.216-65.227-63zm49.083 12.471a16.408 16.408 0 0 0 11.43 15.753v1.312a5.382 5.382 0 0 0 10.761 0v-1.312c11.433-3.281 16.813-17.718 5.38-28.876-2.686-2.625-6.723-3.281-10.757-3.281-4.705 0-8.067-3.94-6.724-7.878a6.567 6.567 0 0 1 4.705-4.592 6.278 6.278 0 0 1 8.071 5.907v.656h11.429v-1.314c0-7.218-5.38-13.78-12.1-15.75v-1.312a5.382 5.382 0 0 0 -10.761 0v1.314c-11.433 3.281-16.813 17.718-5.38 28.876 2.686 2.626 6.724 3.281 10.757 3.281 4.705 0 8.068 3.941 6.724 7.878a6.566 6.566 0 0 1 -4.705 4.592 6.278 6.278 0 0 1 -8.071-5.907v-.656h-10.752zm-31.6-126.664v-116.823l.671-99.765c0-13.782 11.429-25.6 26.224-25.6s26.224 11.814 26.224 25.6v95.821 95.171.656c0 9.844 5.38 19.032 12.776 24.94zm59.842-25.6v-91.883h52.451v91.884c0 13.781-11.429 25.595-26.224 25.595-14.119.003-26.223-11.152-26.223-25.592z"/></svg>